HIERARCHY
ROOT Hips
{
 OFFSET 0.000000 0.000000 0.000000
 CHANNELS 6 Xposition Yposition Zposition Yrotation Xrotation Zrotation
 JOINT Chest
 {
  OFFSET 0.000000 11.395451 -0.039534
  CHANNELS 3 Yrotation Xrotation Zrotation
  JOINT Chest2
  {
   OFFSET 0.000000 9.398669 0.071813
   CHANNELS 3 Yrotation Xrotation Zrotation
   JOINT Chest3
   {
    OFFSET 0.000000 8.489801 0.000000
    CHANNELS 3 Yrotation Xrotation Zrotation
    JOINT Chest4
    {
     OFFSET 0.000000 8.489801 0.000000
     CHANNELS 3 Yrotation Xrotation Zrotation
     JOINT Neck
     {
      OFFSET 0.000000 12.404889 0.000000
      CHANNELS 3 Yrotation Xrotation Zrotation
      JOINT Head
      {
       OFFSET 0.000000 8.903270 0.092239
       CHANNELS 3 Yrotation Xrotation Zrotation
       End Site
       {
        OFFSET 0.000000 17.592497 0.007158
       }
      }
     }
     JOINT RightCollar
     {
      OFFSET -3.196775 6.966722 0.000000
      CHANNELS 3 Yrotation Xrotation Zrotation
      JOINT RightShoulder
      {
       OFFSET -15.955896 0.000000 0.000000
       CHANNELS 3 Yrotation Xrotation Zrotation
       JOINT RightElbow
       {
        OFFSET -24.792472 0.000000 0.000000
        CHANNELS 3 Yrotation Xrotation Zrotation
        JOINT RightWrist
        {
         OFFSET -20.900115 0.000000 0.025002
         CHANNELS 3 Yrotation Xrotation Zrotation
         End Site
         {
          OFFSET -16.056692 0.000000 0.000000
         }
        }
       }
      }
     }
     JOINT LeftCollar
     {
      OFFSET 3.196775 6.966722 0.000000
      CHANNELS 3 Yrotation Xrotation Zrotation
      JOINT LeftShoulder
      {
       OFFSET 15.955896 0.000000 0.000000
       CHANNELS 3 Yrotation Xrotation Zrotation
       JOINT LeftElbow
       {
        OFFSET 24.792472 0.000000 0.000000
        CHANNELS 3 Yrotation Xrotation Zrotation
        JOINT LeftWrist
        {
         OFFSET 20.900115 0.000000 0.025002
         CHANNELS 3 Yrotation Xrotation Zrotation
         End Site
         {
          OFFSET 16.056692 0.000000 0.000000
         }
        }
       }
      }
     }
    }
   }
  }
 }
 JOINT RightHip
 {
  OFFSET -9.568995 0.193718 0.019767
  CHANNELS 3 Yrotation Xrotation Zrotation
  JOINT RightKnee
  {
   OFFSET 0.000000 -56.649296 0.015402
   CHANNELS 3 Yrotation Xrotation Zrotation
   JOINT RightAnkle
   {
    OFFSET 0.000000 -41.365147 0.021264
    CHANNELS 3 Yrotation Xrotation Zrotation
    JOINT RightToe
    {
     OFFSET 0.000000 -7.465940 17.672538
     CHANNELS 3 Yrotation Xrotation Zrotation
     End Site
     {
      OFFSET 0.000000 -1.736315 7.837145
     }
    }
   }
  }
 }
 JOINT LeftHip
 {
  OFFSET 9.568995 0.193718 0.019767
  CHANNELS 3 Yrotation Xrotation Zrotation
  JOINT LeftKnee
  {
   OFFSET 0.000000 -56.649296 0.015402
   CHANNELS 3 Yrotation Xrotation Zrotation
   JOINT LeftAnkle
   {
    OFFSET 0.000000 -41.365147 0.021264
    CHANNELS 3 Yrotation Xrotation Zrotation
    JOINT LeftToe
    {
     OFFSET 0.000000 -7.465940 17.672538
     CHANNELS 3 Yrotation Xrotation Zrotation
     End Site
     {
      OFFSET 0.000000 -1.736315 7.837145
     }
    }
   }
  }
 }
}
MOTION
Frames: 17
Frame Time: 0.016667
-161.530102 106.371101 151.774185 -138.779875 -7.939258 -1.740560 0.415401 5.588420 -0.184869 0.186625 2.483576 -0.087071 0.186625 2.483576 -0.087071 0.140301 1.862656 -0.066052 2.187375 15.204756 -0.494974 4.278271 -7.899139 -1.747851 -1.591873 5.492704 10.224878 12.908428 -11.884589 73.732101 2.250174 0.141895 -0.038665 -2.676817 1.380182 3.194873 -5.525847 4.248144 -4.672247 -0.890603 -14.008562 -77.025711 -2.802255 0.015735 -1.714587 5.739984 -2.278657 -1.756775 6.496327 12.593913 0.944033 -1.243845 1.310950 -0.270189 -6.662071 -7.659542 0.091231 0.000000 0.000000 0.000000 1.184064 12.906351 0.008219 -0.608595 5.537371 0.194242 0.731371 -10.551459 1.186605 0.000000 -0.000000 0.000000
-161.450793 106.357888 151.820924 -138.721882 -7.930641 -1.682440 0.434164 5.549797 -0.184496 0.194939 2.466404 -0.087096 0.194940 2.466404 -0.087096 0.146535 1.849776 -0.066098 2.181060 15.237917 -0.506816 4.269791 -7.837324 -1.766311 -1.570156 5.549707 10.136418 12.906081 -11.889928 73.874241 2.206414 0.121895 -0.086695 -2.702150 1.379907 3.118197 -5.438274 4.330588 -4.809675 -0.977331 -13.883625 -76.978007 -2.863243 -0.014151 -1.695162 5.663754 -2.274841 -1.775360 6.523254 12.512642 0.919487 -1.409472 1.367097 -0.316845 -6.605243 -7.648750 0.126357 0.000000 0.000000 0.000000 1.183737 12.796380 -0.006346 -0.708030 5.631563 0.150149 0.746149 -10.600535 1.183524 -0.000000 -0.000000 0.000000
-161.371484 106.344674 151.867662 -138.663882 -7.922082 -1.624313 0.452966 5.511196 -0.184177 0.203269 2.449240 -0.087143 0.203270 2.449241 -0.087143 0.152779 1.836902 -0.066162 2.174745 15.271097 -0.518601 4.261294 -7.775475 -1.784665 -1.548436 5.606939 10.048125 12.903754 -11.895622 74.016363 2.162602 0.101789 -0.134616 -2.727641 1.379552 3.041571 -5.350764 4.413598 -4.946700 -1.063806 -13.758653 -76.930085 -2.924285 -0.044049 -1.675893 5.587576 -2.271012 -1.794132 6.550286 12.431443 0.894825 -1.575110 1.423120 -0.363797 -6.548424 -7.637972 0.161509 0.000000 -0.000000 0.000000 1.183541 12.686426 -0.021018 -0.807544 5.725669 0.105828 0.760925 -10.649611 1.180455 -0.000000 0.000000 0.000000
-161.293442 106.335155 151.913764 -138.606650 -7.923701 -1.571736 0.469461 5.480709 -0.181354 0.210548 2.435687 -0.086057 0.210548 2.435687 -0.086057 0.158230 1.826736 -0.065373 2.168474 15.301191 -0.530990 4.253207 -7.719328 -1.804288 -1.526048 5.662595 9.961587 12.900408 -11.900339 74.147065 2.121754 0.076603 -0.178167 -2.751528 1.380072 2.971342 -5.267626 4.494123 -5.082345 -1.142964 -13.642429 -76.883054 -2.978032 -0.072781 -1.657770 5.516157 -2.266090 -1.812927 6.563138 12.364872 0.871462 -1.735192 1.476026 -0.402775 -6.479913 -7.625531 0.191937 0.000000 0.000000 0.000000 1.177292 12.592697 -0.034845 -0.893689 5.813151 0.066669 0.774138 -10.687178 1.172797 0.000000 0.000000 0.000000
-161.216780 106.331363 151.958667 -138.556270 -7.941827 -1.528473 0.485136 5.463060 -0.173829 0.217412 2.427845 -0.082884 0.217412 2.427845 -0.082884 0.163363 1.820854 -0.063018 2.162656 15.326489 -0.544083 4.246379 -7.672037 -1.825581 -1.502078 5.715616 9.875548 12.897159 -11.903441 74.262124 2.085620 0.042209 -0.215355 -2.773611 1.382903 2.911292 -5.189988 4.569677 -5.217357 -1.212843 -13.538251 -76.835744 -3.022883 -0.099505 -1.643653 5.451251 -2.258878 -1.832830 6.558002 12.319636 0.852323 -1.894294 1.527352 -0.430659 -6.384255 -7.611888 0.215996 0.000000 -0.000000 0.000000 1.160874 12.525765 -0.046805 -0.955480 5.889895 0.035342 0.787767 -10.707637 1.157161 -0.000000 -0.000000 0.000000
-161.141386 106.331265 152.002934 -138.506681 -7.970105 -1.490790 0.498466 5.453503 -0.163749 0.223208 2.423603 -0.078556 0.223208 2.423603 -0.078556 0.167693 1.817674 -0.059794 2.156879 15.348700 -0.557808 4.239961 -7.630450 -1.848190 -1.477476 5.767026 9.791218 12.892923 -11.905415 74.365770 2.052523 0.002772 -0.248194 -2.794012 1.386625 2.857612 -5.116765 4.642635 -5.351133 -1.275465 -13.442854 -76.789377 -3.060418 -0.125064 -1.630628 5.391097 -2.250563 -1.852696 6.538618 12.288951 0.834574 -2.047845 1.575598 -0.450542 -6.276901 -7.596560 0.235333 0.000000 0.000000 0.000000 1.138321 12.475030 -0.057844 -1.003862 5.960073 0.009321 0.799841 -10.716585 1.136927 0.000000 -0.000000 0.000000
-161.068193 106.332452 152.047609 -138.440453 -7.999644 -1.453016 0.502582 5.445912 -0.155080 0.224932 2.420236 -0.074748 0.224932 2.420236 -0.074748 0.168970 1.815150 -0.056944 2.149963 15.369845 -0.572581 4.231835 -7.590839 -1.872374 -1.454381 5.818103 9.713877 12.883363 -11.906536 74.459285 2.020355 -0.034235 -0.278446 -2.811430 1.387918 2.805256 -5.048966 4.717178 -5.480702 -1.329797 -13.355184 -76.748667 -3.088085 -0.150835 -1.611005 5.335114 -2.243646 -1.868997 6.502029 12.267112 0.811013 -2.176548 1.613263 -0.463350 -6.192513 -7.576459 0.250141 0.000000 -0.000000 0.000000 1.115683 12.424942 -0.069968 -1.058284 6.029587 -0.013778 0.802872 -10.719296 1.117647 0.000000 0.000000 0.000000
-160.997517 106.334265 152.093415 -138.349539 -8.025826 -1.413931 0.493470 5.437743 -0.148886 0.220812 2.416616 -0.071883 0.220812 2.416615 -0.071883 0.165869 1.812436 -0.054778 2.141620 15.390242 -0.589039 4.221692 -7.552598 -1.899202 -1.432937 5.871035 9.645902 12.867839 -11.907765 74.541075 1.990895 -0.068090 -0.305464 -2.823782 1.383640 2.751124 -4.987346 4.794595 -5.604620 -1.372502 -13.275280 -76.718079 -3.103894 -0.175660 -1.578961 5.282036 -2.241278 -1.878007 6.434294 12.251878 0.775424 -2.258806 1.635367 -0.465435 -6.146891 -7.548910 0.258569 0.000000 0.000000 0.000000 1.096240 12.367832 -0.083198 -1.127024 6.101636 -0.034238 0.792620 -10.717951 1.102390 0.000000 -0.000000 -0.000000
-160.929042 106.337363 152.139629 -138.241982 -8.053310 -1.374781 0.475146 5.431518 -0.144118 0.212621 2.413860 -0.069545 0.212621 2.413860 -0.069545 0.159717 1.810371 -0.052991 2.132139 15.409572 -0.606558 4.209847 -7.516335 -1.927628 -1.413008 5.923564 9.584895 12.846975 -11.908026 74.612750 1.962362 -0.099497 -0.329922 -2.833107 1.376950 2.698305 -4.931169 4.873477 -5.724377 -1.407002 -13.203107 -76.693175 -3.109893 -0.200760 -1.540275 5.233098 -2.240328 -1.883432 6.349342 12.245440 0.733996 -2.316203 1.646977 -0.460223 -6.124242 -7.516590 0.262453 0.000000 -0.000000 -0.000000 1.076720 12.311385 -0.097572 -1.201797 6.173028 -0.051780 0.773322 -10.710371 1.088082 0.000000 0.000000 0.000000
-160.862757 106.341320 152.185133 -138.124478 -8.087139 -1.333604 0.452798 5.428709 -0.141585 0.202669 2.412621 -0.068156 0.202669 2.412621 -0.068156 0.152249 1.809443 -0.051910 2.121205 15.428898 -0.623656 4.195126 -7.480151 -1.954730 -1.396283 5.970297 9.528970 12.818318 -11.904546 74.680408 1.927262 -0.123137 -0.355555 -2.844309 1.373975 2.651039 -4.879191 4.953973 -5.841359 -1.442387 -13.137488 -76.665308 -3.109586 -0.231063 -1.504681 5.191490 -2.233866 -1.892886 6.286025 12.248807 0.698132 -2.394205 1.655658 -0.459242 -6.111830 -7.484454 0.267521 0.000000 -0.000000 -0.000000 1.053366 12.263099 -0.115126 -1.277211 6.240066 -0.067976 0.750212 -10.695293 1.071057 0.000000 0.000000 0.000000
-160.799129 106.346304 152.228605 -138.004678 -8.131404 -1.287888 0.429097 5.430234 -0.142513 0.192159 2.413305 -0.068292 0.192158 2.413306 -0.068292 0.144367 1.809958 -0.051971 2.108697 15.449326 -0.639679 4.177026 -7.442025 -1.979195 -1.382956 6.008188 9.478867 12.778874 -11.895596 74.746647 1.881285 -0.133838 -0.384469 -2.860193 1.379059 2.612867 -4.829781 5.037449 -5.956052 -1.479789 -13.078535 -76.630425 -3.101070 -0.271809 -1.477779 5.162011 -2.215896 -1.911592 6.268830 12.265735 0.673375 -2.515344 1.661544 -0.468804 -6.104088 -7.452901 0.277340 0.000000 -0.000000 0.000000 1.026126 12.228316 -0.138253 -1.347718 6.302343 -0.083391 0.726417 -10.671134 1.047735 0.000000 0.000000 0.000000
-160.737690 106.352147 152.271367 -137.874946 -8.182049 -1.240205 0.401366 5.435176 -0.145674 0.179886 2.415508 -0.069375 0.179886 2.415509 -0.069375 0.135169 1.811611 -0.052735 2.094736 15.469745 -0.655287 4.156053 -7.403988 -2.002346 -1.372799 6.040239 9.433801 12.731624 -11.882855 74.808877 1.828701 -0.136808 -0.414571 -2.877956 1.387855 2.580236 -4.784571 5.122488 -6.067978 -1.518080 -13.026148 -76.592624 -3.086222 -0.317738 -1.453983 5.139892 -2.192378 -1.934237 6.273243 12.292572 0.654303 -2.657079 1.664472 -0.482627 -6.106575 -7.421538 0.288331 0.000000 -0.000000 0.000000 0.995051 12.201702 -0.164535 -1.418854 6.360273 -0.097435 0.698804 -10.639473 1.021697 0.000000 -0.000000 -0.000000
-160.677030 106.357918 152.316267 -137.719041 -8.231893 -1.196226 0.366767 5.442249 -0.148193 0.164558 2.418660 -0.070093 0.164558 2.418660 -0.070093 0.123678 1.813976 -0.053213 2.079368 15.487895 -0.670964 4.132555 -7.370215 -2.025199 -1.366868 6.070154 9.389606 12.683095 -11.868704 74.865427 1.774891 -0.142308 -0.443271 -2.894120 1.393435 2.546757 -4.747188 5.205101 -6.177078 -1.562941 -12.978818 -76.555483 -3.074197 -0.358005 -1.426246 5.113972 -2.174335 -1.952680 6.264625 12.319240 0.635823 -2.797274 1.671549 -0.493403 -6.123244 -7.394135 0.295504 0.000000 0.000000 0.000000 0.956543 12.174725 -0.188791 -1.501853 6.411394 -0.109972 0.663222 -10.603788 1.000010 0.000000 0.000000 0.000000
-160.617536 106.363375 152.364855 -137.519710 -8.276934 -1.156908 0.317982 5.449292 -0.150198 0.142927 2.421802 -0.070414 0.142927 2.421801 -0.070414 0.107458 1.816334 -0.053369 2.061739 15.504024 -0.687838 4.105346 -7.340227 -2.049530 -1.368700 6.098750 9.344235 12.634308 -11.853063 74.916751 1.721095 -0.153782 -0.468679 -2.907052 1.392072 2.509708 -4.721976 5.285225 -6.284424 -1.613351 -12.934732 -76.520934 -3.065582 -0.381308 -1.387992 5.078433 -2.167693 -1.962493 6.221691 12.342930 0.612520 -2.929427 1.684377 -0.496161 -6.156766 -7.372951 0.294849 0.000000 0.000000 0.000000 0.902654 12.142667 -0.211692 -1.602882 6.453600 -0.120184 0.615648 -10.563205 0.984874 0.000000 0.000000 0.000000
-160.558820 106.368761 152.415580 -137.294184 -8.321207 -1.121357 0.262322 5.458431 -0.151564 0.118237 2.425881 -0.070371 0.118237 2.425880 -0.070371 0.088944 1.819396 -0.053240 2.042706 15.517891 -0.704782 4.075619 -7.314489 -2.073566 -1.374760 6.125212 9.299722 12.584249 -11.836005 74.962410 1.666082 -0.167772 -0.492652 -2.918378 1.387488 2.471824 -4.704586 5.362894 -6.388978 -1.670357 -12.895661 -76.487060 -3.059797 -0.398970 -1.345745 5.039058 -2.166565 -1.968154 6.165719 12.366408 0.589757 -3.060047 1.701375 -0.495851 -6.204470 -7.355732 0.290368 0.000000 0.000000 0.000000 0.841318 12.110223 -0.232641 -1.715768 6.488992 -0.128952 0.560117 -10.518601 0.974049 0.000000 0.000000 0.000000
-160.498303 106.373862 152.466641 -137.077931 -8.369528 -1.092444 0.218890 5.474838 -0.149003 0.098930 2.433191 -0.068731 0.098930 2.433191 -0.068731 0.074460 1.824882 -0.051934 2.024883 15.526498 -0.718905 4.047287 -7.298588 -2.092994 -1.375510 6.150830 9.258055 12.536393 -11.820190 74.999419 1.611526 -0.184175 -0.518163 -2.929546 1.383920 2.434915 -4.685607 5.434321 -6.487493 -1.742753 -12.865439 -76.451638 -3.064273 -0.434061 -1.312160 5.002077 -2.164261 -1.974943 6.125916 12.387916 0.578529 -3.186513 1.724898 -0.500050 -6.262300 -7.339467 0.289091 0.000000 0.000000 0.000000 0.792734 12.082973 -0.244528 -1.833232 6.521416 -0.138699 0.504578 -10.476085 0.967946 0.000000 0.000000 0.000000
-160.434445 106.378430 152.516763 -136.882903 -8.425095 -1.072087 0.195278 5.501789 -0.141019 0.088360 2.445181 -0.064919 0.088359 2.445181 -0.064919 0.066519 1.833877 -0.049035 2.008430 15.527392 -0.728727 4.020183 -7.297134 -2.105203 -1.367875 6.173728 9.221428 12.482698 -11.804136 75.025580 1.562892 -0.197098 -0.543251 -2.940132 1.382109 2.398860 -4.662593 5.498047 -6.577913 -1.841892 -12.847536 -76.412947 -3.078299 -0.503647 -1.290899 4.971973 -2.156163 -1.986111 6.119586 12.407582 0.586837 -3.308559 1.757137 -0.513736 -6.335478 -7.323580 0.294810 0.000000 0.000000 0.000000 0.775622 12.064723 -0.240385 -1.963608 6.551619 -0.151497 0.449628 -10.438621 0.969194 0.000000 0.000000 0.000000
